<svg width="134" height="46" viewBox="0 0 134 46" fill="none" xmlns="http://www.w3.org/2000/svg">
<path d="M18 5C16.5964 5 15.2303 5.16064 13.9197 5.46519C7.25502 7.00937 2.00937 12.255 0.465194 18.919C0.160642 20.2303 0 21.5964 0 23C0 32.9411 8.0589 41 18 41C19.4036 41 20.7697 40.8394 22.081 40.5348C28.745 38.9906 33.9906 33.7456 35.5355 27.0823C35.84 25.7711 36.0007 24.4043 36.0007 23C36.0007 13.0589 27.9411 5 18 5ZM18 34.2724C16.6714 34.2724 15.3969 34.0428 14.2135 33.6205C11.0341 32.4866 8.51406 29.9665 7.38019 26.7871C6.95783 25.6037 6.72825 24.3286 6.72825 23C6.72825 16.7744 11.7744 11.7276 18 11.7276C19.3286 11.7276 20.6031 11.9572 21.7865 12.3795C24.9659 13.5134 27.4866 16.0335 28.6205 19.2129C29.0428 20.3963 29.2724 21.6714 29.2724 23C29.2724 29.2256 24.2256 34.2724 18 34.2724Z" fill="url(#paint0_linear_2001_2144)"/>
<path d="M17.9999 15.735C13.9879 15.735 10.7349 18.988 10.7349 23C10.7349 27.0121 13.9879 30.2651 17.9999 30.2651C22.012 30.2651 25.265 27.0121 25.265 23C25.265 18.988 22.0126 15.735 17.9999 15.735ZM17.9999 27.3929C15.5742 27.3929 13.607 25.4264 13.607 23C13.607 20.5736 15.5742 18.6071 17.9999 18.6071C20.4256 18.6071 22.3928 20.5736 22.3928 23C22.3928 25.4264 20.4263 27.3929 17.9999 27.3929Z" fill="#FEFCFE"/>
<path d="M21.7864 12.3795C20.603 11.9572 19.3285 11.7276 17.9999 11.7276C11.7743 11.7276 6.72814 16.7744 6.72814 23C6.72814 24.3287 6.95773 25.6038 7.38008 26.7872C5.94166 26.2437 4.59293 25.3929 3.43497 24.235C1.91556 22.7155 0.925597 20.8675 0.465088 18.919C2.00926 12.255 7.25491 7.00939 13.9196 5.46521C15.8674 5.92572 17.7154 6.91568 19.2348 8.43509C20.3921 9.59239 21.2429 10.9411 21.7864 12.3795Z" fill="url(#paint1_linear_2001_2144)"/>
<path d="M35.5353 27.0823C33.9905 33.7457 28.7448 38.9906 22.0808 40.5348C20.1331 40.0743 18.285 39.0843 16.7656 37.5649C15.6076 36.407 14.7569 35.0582 14.2134 33.6205C15.3968 34.0428 16.6712 34.2724 17.9999 34.2724C24.2254 34.2724 29.2723 29.2256 29.2723 23C29.2723 21.6714 29.0427 20.3963 28.6203 19.2129C30.0581 19.7564 31.4068 20.6071 32.5648 21.7651C34.0842 23.2845 35.0748 25.1339 35.5353 27.0823Z" fill="url(#paint2_linear_2001_2144)"/>
<path d="M9.09641 35.6713C11.1769 35.6713 12.8635 33.9848 12.8635 31.9043C12.8635 29.8238 11.1769 28.1372 9.09641 28.1372C7.01592 28.1372 5.32935 29.8238 5.32935 31.9043C5.32935 33.9848 7.01592 35.6713 9.09641 35.6713Z" fill="url(#paint3_linear_2001_2144)"/>
<path d="M26.937 17.8306C29.0175 17.8306 30.7041 16.1441 30.7041 14.0636C30.7041 11.9831 29.0175 10.2965 26.937 10.2965C24.8565 10.2965 23.1699 11.9831 23.1699 14.0636C23.1699 16.1441 24.8565 17.8306 26.937 17.8306Z" fill="url(#paint4_linear_2001_2144)"/>
<path d="M49.2247 29V19.837H50.7717V21.707L50.5507 21.418C50.7774 20.84 51.1401 20.398 51.6387 20.092C52.1374 19.786 52.6984 19.633 53.3217 19.633C54.0357 19.633 54.6761 19.8313 55.2427 20.228C55.8207 20.6247 56.2174 21.146 56.4327 21.792L55.9907 21.809C56.2287 21.095 56.6311 20.5567 57.1977 20.194C57.7644 19.82 58.3934 19.633 59.0847 19.633C59.7194 19.633 60.2917 19.7803 60.8017 20.075C61.3231 20.3697 61.7367 20.7777 62.0427 21.299C62.3487 21.8203 62.5017 22.4097 62.5017 23.067V29H60.9037V23.577C60.9037 23.067 60.8131 22.6363 60.6317 22.285C60.4504 21.9337 60.2011 21.6617 59.8837 21.469C59.5777 21.265 59.2151 21.163 58.7957 21.163C58.3877 21.163 58.0194 21.265 57.6907 21.469C57.3734 21.6617 57.1184 21.9393 56.9257 22.302C56.7444 22.6533 56.6537 23.0783 56.6537 23.577V29H55.0557V23.577C55.0557 23.067 54.9651 22.6363 54.7837 22.285C54.6024 21.9337 54.3531 21.6617 54.0357 21.469C53.7297 21.265 53.3671 21.163 52.9477 21.163C52.5397 21.163 52.1714 21.265 51.8427 21.469C51.5254 21.6617 51.2704 21.9393 51.0777 22.302C50.8964 22.6533 50.8057 23.0783 50.8057 23.577V29H49.2247ZM65.0742 32.74C64.8702 32.74 64.6662 32.723 64.4622 32.689C64.2582 32.655 64.0655 32.5983 63.8842 32.519V31.108C64.0088 31.1307 64.1618 31.1533 64.3432 31.176C64.5358 31.21 64.7228 31.227 64.9042 31.227C65.4368 31.227 65.8392 31.108 66.1112 30.87C66.3945 30.6433 66.6608 30.2467 66.9102 29.68L67.4882 28.303L67.4542 29.68L63.5442 19.837H65.2612L68.3042 27.657H67.7942L70.8202 19.837H72.5712L68.4402 30.088C68.2475 30.5753 67.9982 31.0173 67.6922 31.414C67.3975 31.822 67.0348 32.145 66.6042 32.383C66.1735 32.621 65.6635 32.74 65.0742 32.74ZM73.943 29V26.96H75.592V29H73.943ZM81.818 29V16.335H83.484V21.979H89.825V16.335H91.508V29H89.825V23.509H83.484V29H81.818ZM96.818 29.204C96.2173 29.204 95.6846 29.0963 95.22 28.881C94.7666 28.6543 94.4096 28.3483 94.149 27.963C93.8883 27.5663 93.758 27.113 93.758 26.603C93.758 26.1157 93.86 25.6793 94.064 25.294C94.2793 24.8973 94.608 24.563 95.05 24.291C95.5033 24.019 96.07 23.8263 96.75 23.713L100.15 23.152V24.478L97.107 24.988C96.5176 25.09 96.087 25.277 95.815 25.549C95.5543 25.821 95.424 26.1553 95.424 26.552C95.424 26.926 95.5713 27.2377 95.866 27.487C96.172 27.7363 96.5516 27.861 97.005 27.861C97.583 27.861 98.0816 27.742 98.501 27.504C98.9316 27.2547 99.266 26.9203 99.504 26.501C99.7533 26.0817 99.878 25.617 99.878 25.107V22.778C99.878 22.2793 99.691 21.877 99.317 21.571C98.9543 21.2537 98.4726 21.095 97.872 21.095C97.3506 21.095 96.886 21.231 96.478 21.503C96.0813 21.7637 95.7866 22.115 95.594 22.557L94.217 21.843C94.387 21.4237 94.659 21.0497 95.033 20.721C95.407 20.381 95.8433 20.1147 96.342 19.922C96.8406 19.7293 97.362 19.633 97.906 19.633C98.6086 19.633 99.2263 19.769 99.759 20.041C100.292 20.3017 100.705 20.67 101 21.146C101.306 21.6107 101.459 22.1547 101.459 22.778V29H99.912V27.266L100.201 27.368C100.008 27.7307 99.7476 28.048 99.419 28.32C99.0903 28.592 98.705 28.8073 98.263 28.966C97.821 29.1247 97.3393 29.204 96.818 29.204ZM108.653 29.204C107.917 29.204 107.242 29.0397 106.63 28.711C106.03 28.3823 105.565 27.9177 105.236 27.317L105.457 27.045V29H103.91V16.131H105.491V21.809L105.253 21.418C105.593 20.874 106.058 20.4433 106.647 20.126C107.237 19.7973 107.911 19.633 108.67 19.633C109.532 19.633 110.302 19.8427 110.982 20.262C111.674 20.6813 112.218 21.2537 112.614 21.979C113.011 22.693 113.209 23.509 113.209 24.427C113.209 25.3223 113.011 26.1327 112.614 26.858C112.218 27.5833 111.674 28.1557 110.982 28.575C110.302 28.9943 109.526 29.204 108.653 29.204ZM108.534 27.674C109.112 27.674 109.628 27.5323 110.081 27.249C110.535 26.9657 110.886 26.5803 111.135 26.093C111.396 25.5943 111.526 25.039 111.526 24.427C111.526 23.7923 111.396 23.237 111.135 22.761C110.886 22.2737 110.535 21.8883 110.081 21.605C109.628 21.3103 109.112 21.163 108.534 21.163C107.956 21.163 107.435 21.3047 106.97 21.588C106.517 21.8713 106.154 22.2623 105.882 22.761C105.622 23.2483 105.491 23.8037 105.491 24.427C105.491 25.039 105.622 25.5943 105.882 26.093C106.154 26.5803 106.517 26.9657 106.97 27.249C107.435 27.5323 107.956 27.674 108.534 27.674ZM115.282 29V19.837H116.863V29H115.282ZM115.282 18.375V16.335H116.863V18.375H115.282ZM123.04 29.102C122.144 29.102 121.453 28.847 120.966 28.337C120.49 27.827 120.252 27.1073 120.252 26.178V21.35H118.586V19.837H118.926C119.334 19.837 119.657 19.7123 119.895 19.463C120.133 19.2137 120.252 18.885 120.252 18.477V17.729H121.833V19.837H123.89V21.35H121.833V26.127C121.833 26.433 121.878 26.6993 121.969 26.926C122.071 27.1527 122.235 27.334 122.462 27.47C122.688 27.5947 122.989 27.657 123.363 27.657C123.442 27.657 123.538 27.6513 123.652 27.64C123.776 27.6287 123.89 27.6173 123.992 27.606V29C123.844 29.034 123.68 29.0567 123.499 29.068C123.317 29.0907 123.164 29.102 123.04 29.102ZM129.338 29.204C128.42 29.204 127.621 28.9773 126.941 28.524C126.261 28.0707 125.779 27.4587 125.496 26.688L126.754 26.076C127.014 26.62 127.371 27.0507 127.825 27.368C128.278 27.6853 128.782 27.844 129.338 27.844C129.836 27.844 130.25 27.725 130.579 27.487C130.907 27.249 131.072 26.9373 131.072 26.552C131.072 26.28 130.992 26.0647 130.834 25.906C130.686 25.736 130.505 25.6057 130.29 25.515C130.074 25.413 129.876 25.3393 129.695 25.294L128.318 24.903C127.49 24.665 126.884 24.325 126.499 23.883C126.125 23.441 125.938 22.9253 125.938 22.336C125.938 21.792 126.074 21.3217 126.346 20.925C126.629 20.517 127.009 20.1997 127.485 19.973C127.972 19.7463 128.516 19.633 129.117 19.633C129.921 19.633 130.641 19.837 131.276 20.245C131.922 20.653 132.381 21.2253 132.653 21.962L131.361 22.557C131.157 22.081 130.851 21.707 130.443 21.435C130.035 21.1517 129.576 21.01 129.066 21.01C128.601 21.01 128.233 21.129 127.961 21.367C127.689 21.5937 127.553 21.8827 127.553 22.234C127.553 22.4947 127.621 22.71 127.757 22.88C127.893 23.0387 128.057 23.1633 128.25 23.254C128.442 23.3333 128.629 23.4013 128.811 23.458L130.307 23.9C131.055 24.1153 131.633 24.4497 132.041 24.903C132.46 25.3563 132.67 25.9003 132.67 26.535C132.67 27.045 132.528 27.504 132.245 27.912C131.961 28.32 131.57 28.6373 131.072 28.864C130.573 29.0907 129.995 29.204 129.338 29.204Z" fill="white"/>
<defs>
<linearGradient id="paint0_linear_2001_2144" x1="30.5556" y1="11.1359" x2="5.83534" y2="34.4953" gradientUnits="userSpaceOnUse">
<stop stop-color="#F38856"/>
<stop offset="0.23" stop-color="#F0625C"/>
<stop offset="1" stop-color="#5C3DAB"/>
</linearGradient>
<linearGradient id="paint1_linear_2001_2144" x1="16.8607" y1="8.05156" x2="2.79976" y2="22.0368" gradientUnits="userSpaceOnUse">
<stop stop-color="#F67986"/>
<stop offset="1" stop-color="#8951BA"/>
</linearGradient>
<linearGradient id="paint2_linear_2001_2144" x1="32.9423" y1="24.2196" x2="18.8814" y2="38.2055" gradientUnits="userSpaceOnUse">
<stop stop-color="#F67986"/>
<stop offset="1" stop-color="#8951BA"/>
</linearGradient>
<linearGradient id="paint3_linear_2001_2144" x1="11.8467" y1="29.3306" x2="6.34541" y2="34.4779" gradientUnits="userSpaceOnUse">
<stop stop-color="#A267B9"/>
<stop offset="1" stop-color="#704BB4"/>
</linearGradient>
<linearGradient id="paint4_linear_2001_2144" x1="29.2268" y1="11.9203" x2="25.4711" y2="15.4351" gradientUnits="userSpaceOnUse">
<stop stop-color="#F7A8A5"/>
<stop offset="0.97" stop-color="#D074C4"/>
<stop offset="1" stop-color="#CF76A9"/>
</linearGradient>
</defs>
</svg>

